# xmcd
#
# Track frame offsets:
#	150
#	17205
#	34290
#	52780
#	73545
#	89935
#	107497
#	126457
#	142520
#	160155
#	173212
#	191522
#	212285
#
# Disc length: 3193 seconds
# Revision: 0
# Processed by: cddbd v1.5.2PL0 Copyright (c) Steve Scherf et al.
# Submitted via: dBpowerAMP V12.0
#
DISCID=ad0c770d
DTITLE=Dan Crary - Renaissance of the Steel String Guitar
DYEAR=2004
DGENRE=Country
TTITLE0=Senso Unico
TTITLE1=In Flagrante
TTITLE2=An Druimfhionn Donn Dilis/Toss the Feathers
TTITLE3=Banderilla
TTITLE4=Lobelia Blue
TTITLE5=Hot Pursuit
TTITLE6=Cape Foulweather
TTITLE7=Reedie's Blues
TTITLE8=Rusticity
TTITLE9=The Fermoy Lasses/The Man of the House
TTITLE10=The Jig Is Up
TTITLE11=E Lucevan le Stella
TTITLE12=On the Fritz
EXTD=
EXTT0=
EXTT1=
EXTT2=
EXTT3=
EXTT4=
EXTT5=
EXTT6=
EXTT7=
EXTT8=
EXTT9=
EXTT10=
EXTT11=
EXTT12=
PLAYORDER=
